<?xml version="1.0" encoding="UTF-8"?>
<svg width="752pt" height="752pt" version="1.1" viewBox="0 0 752 752" xmlns="http://www.w3.org/2000/svg">
 <path d="m376 514.13c-50.762 0-102.53-23.746-150.66-62.621-34.902-28.188-66.395-64.234-66.395-75.508 0-11.27 31.492-47.316 66.395-75.504 48.133-38.879 99.898-62.621 150.66-62.621 50.766 0 102.53 23.742 150.66 62.621 34.902 28.188 66.395 64.234 66.395 75.504 0 11.273-31.492 47.32-66.395 75.508-48.137 38.875-99.898 62.621-150.66 62.621zm0-19.73c45.492 0 93.32-21.941 138.27-58.242 16.895-13.645 32.34-28.586 44.449-42.441 4.9844-5.707 9.1094-10.91 11.938-14.988 1.5586-2.25 2.6758-4.3594 2.6758-2.7266 0 1.6367-1.1172-0.47266-2.6758-2.7227-2.8281-4.082-6.9531-9.2812-11.938-14.988-12.109-13.859-27.555-28.797-44.449-42.441-44.945-36.301-92.773-58.242-138.27-58.242-45.488 0-93.316 21.941-138.26 58.242-16.895 13.645-32.34 28.582-44.449 42.441-4.9844 5.707-9.1094 10.906-11.938 14.988-1.5586 2.25-2.6758 4.3594-2.6758 2.7227 0-1.6328 1.1172 0.47656 2.6758 2.7266 2.8281 4.0781 6.9531 9.2812 11.938 14.988 12.109 13.855 27.555 28.797 44.449 42.441 44.945 36.301 92.773 58.242 138.26 58.242zm0-39.469c-43.59 0-78.93-35.336-78.93-78.93 0-43.59 35.34-78.93 78.93-78.93 43.594 0 78.93 35.34 78.93 78.93 0 43.594-35.336 78.93-78.93 78.93zm0-19.73c32.695 0 59.199-26.504 59.199-59.199 0-32.691-26.504-59.195-59.199-59.195-32.691 0-59.195 26.504-59.195 59.195 0 32.695 26.504 59.199 59.195 59.199z" fill="#0044a3"/>
</svg>
